<?xml version="1.0" encoding="UTF-8" ?>
<!DOCTYPE svg PUBLIC "-//W3C//DTD SVG 1.1//EN" "http://www.w3.org/Graphics/SVG/1.1/DTD/svg11.dtd">
<svg width="110pt" height="90pt" viewBox="0 0 463 381" version="1.1" xmlns="http://www.w3.org/2000/svg">
<path fill="#ffffff" d=" M 0.00 0.00 L 463.00 0.00 L 463.00 381.00 L 0.00 381.00 L 0.00 0.00 Z" />
<path fill="#8b8d8d" d=" M 122.25 86.01 C 143.06 85.99 163.87 86.00 184.68 86.01 C 184.66 86.72 184.62 88.13 184.59 88.84 C 182.52 89.37 180.46 89.97 178.40 90.58 C 178.25 91.09 177.94 92.12 177.78 92.64 C 178.55 92.29 180.08 91.59 180.84 91.23 C 180.60 92.78 180.01 94.15 179.07 95.34 C 177.42 95.76 175.91 95.07 174.77 93.90 C 174.51 92.26 175.24 90.68 175.57 89.10 C 160.85 89.23 146.12 89.22 131.40 89.10 C 131.74 90.67 132.34 92.23 132.21 93.87 C 130.95 95.37 127.68 96.52 126.93 93.97 C 126.72 93.30 126.31 91.95 126.10 91.28 C 126.88 91.61 128.43 92.27 129.20 92.60 C 129.04 92.09 128.71 91.08 128.54 90.58 C 126.49 89.97 124.43 89.36 122.36 88.83 C 122.33 88.13 122.28 86.72 122.25 86.01 Z" />
<path fill="#8b8d8d" d=" M 285.61 86.00 C 306.46 86.04 327.31 85.93 348.16 86.05 C 348.17 86.68 348.19 87.94 348.20 88.56 C 346.00 89.24 343.83 89.95 341.66 90.69 C 341.52 91.06 341.23 91.80 341.09 92.17 C 342.00 92.26 343.80 92.43 344.71 92.52 C 343.69 94.34 341.36 96.58 339.28 94.82 C 337.16 93.52 338.65 90.91 339.05 89.10 C 324.23 89.22 309.41 89.24 294.59 89.09 C 295.09 90.72 296.09 92.47 295.33 94.20 C 293.90 94.87 292.38 95.33 290.89 95.83 C 290.44 94.57 290.01 93.32 289.58 92.06 C 290.28 92.14 291.70 92.31 292.40 92.39 C 292.37 91.75 292.34 91.11 292.32 90.47 C 291.53 90.52 289.96 90.61 289.17 90.66 C 289.21 90.30 289.30 89.59 289.35 89.24 C 288.43 89.22 286.58 89.19 285.66 89.17 C 285.65 88.38 285.62 86.79 285.61 86.00 Z" />
<path fill="#0073a4" d=" M 188.58 86.83 C 204.00 114.07 219.33 141.35 234.87 168.53 C 229.20 183.28 224.73 198.48 219.35 213.35 C 209.45 196.37 199.29 179.55 189.31 162.62 C 188.21 160.96 188.47 158.89 188.41 157.00 C 188.55 133.61 188.35 110.22 188.58 86.83 Z" />
<path fill="#00a9dd" d=" M 266.07 113.09 C 271.11 104.35 275.85 95.45 281.11 86.84 C 281.19 110.56 281.12 134.27 281.19 157.98 C 281.29 159.98 280.74 161.94 279.66 163.62 C 269.74 180.25 259.85 196.90 250.00 213.58 C 239.79 213.47 229.53 213.98 219.35 213.35 C 224.73 198.48 229.20 183.28 234.87 168.53 C 245.00 149.90 255.72 131.59 266.07 113.09 Z" />
<path fill="#8b8d8d" d=" M 133.01 91.14 C 140.95 90.19 148.97 90.88 156.94 90.68 C 162.58 90.77 168.25 90.33 173.85 91.14 C 166.74 93.08 159.26 91.81 151.99 92.09 C 145.67 91.44 139.17 93.07 133.01 91.14 Z" />
<path fill="#8b8d8d" d=" M 297.43 90.68 C 310.75 90.96 324.11 90.09 337.39 91.16 C 331.07 92.96 324.48 91.75 318.03 91.96 C 311.20 92.30 304.36 91.78 297.53 92.19 L 297.43 90.68 Z" />
<path fill="#8b8d8d" d=" M 133.17 93.79 C 146.36 92.73 159.65 93.58 172.88 93.33 C 172.87 93.64 172.85 94.26 172.83 94.57 C 161.88 94.59 150.92 94.52 139.97 94.62 C 137.68 94.65 135.37 94.43 133.17 93.79 Z" />
<path fill="#8b8d8d" d=" M 297.39 93.32 C 310.68 93.61 324.02 92.69 337.26 93.82 C 334.90 94.44 332.45 94.66 330.01 94.63 C 319.13 94.54 308.25 94.60 297.36 94.58 C 297.37 94.26 297.39 93.63 297.39 93.32 Z" />
<path fill="#8b8d8d" d=" M 286.64 92.19 C 288.36 93.41 289.42 96.14 291.85 96.18 C 298.52 96.67 305.24 95.87 311.91 96.47 C 313.41 96.55 314.80 97.61 315.03 99.15 C 315.58 102.73 315.23 106.37 315.29 109.98 C 315.28 139.66 315.28 169.35 315.30 199.03 C 315.30 201.04 315.10 204.01 312.62 204.44 C 305.73 205.32 298.75 204.27 291.84 204.88 C 289.55 205.13 288.31 207.48 286.59 208.70 C 288.51 204.02 293.18 202.15 297.18 199.75 C 296.23 198.87 295.13 198.59 293.91 198.92 C 293.74 198.86 293.40 198.74 293.23 198.67 C 292.40 196.59 296.32 197.87 297.41 197.25 C 297.33 166.10 297.34 134.94 297.40 103.79 C 296.31 103.16 292.34 104.41 293.23 102.32 C 293.39 102.26 293.73 102.13 293.89 102.07 C 295.15 102.50 296.23 102.22 297.16 101.23 C 293.16 98.81 288.33 97.05 286.64 92.19 Z" />
<path fill="#8b8d8d" d=" M 123.11 93.04 C 124.31 93.80 126.70 95.31 127.89 96.07 C 135.02 96.93 142.28 95.56 149.38 96.67 C 151.85 97.21 151.77 99.97 151.81 101.96 C 151.78 131.64 151.79 161.32 151.80 191.00 C 151.76 194.62 152.03 198.26 151.60 201.86 C 151.57 203.63 149.67 204.55 148.11 204.62 C 141.40 205.18 134.63 204.22 127.93 204.98 C 126.73 205.72 124.33 207.18 123.13 207.92 C 125.17 205.60 127.33 203.34 130.06 201.83 C 129.70 200.37 129.37 198.91 129.05 197.44 C 130.67 197.43 132.29 197.44 133.91 197.47 C 133.81 166.17 133.80 134.86 133.92 103.56 C 132.37 103.59 130.81 103.61 129.26 103.61 C 129.40 102.14 129.56 100.68 129.72 99.22 C 127.22 97.50 125.15 95.26 123.11 93.04 Z" />
<path fill="#8b8d8d" d=" M 157.48 96.69 C 164.60 95.53 171.90 96.96 179.05 96.04 C 180.24 95.32 182.63 93.88 183.82 93.16 C 181.76 95.45 179.60 97.70 176.88 99.21 C 177.24 100.66 177.57 102.12 177.90 103.58 C 176.21 103.59 174.53 103.57 172.85 103.55 C 172.89 134.85 172.89 166.15 172.86 197.46 C 174.52 197.43 176.20 197.41 177.87 197.43 C 177.56 198.90 177.23 200.37 176.87 201.83 C 179.57 203.34 181.73 205.55 183.82 207.80 C 181.40 206.46 179.09 204.39 176.13 204.72 C 169.92 204.46 163.64 205.30 157.48 204.36 C 155.02 203.79 155.21 200.98 155.14 199.02 C 155.17 166.65 155.16 134.28 155.15 101.91 C 155.21 99.97 155.09 97.25 157.48 96.69 Z" />
<path fill="#8b8d8d" d=" M 321.49 96.52 C 328.36 95.76 335.30 96.79 342.18 96.11 C 343.37 95.23 345.74 93.48 346.92 92.60 C 345.60 95.40 343.13 97.25 340.77 99.08 C 340.85 100.65 340.86 102.22 340.86 103.80 C 339.33 103.81 337.81 103.81 336.29 103.73 C 336.42 134.93 336.46 166.13 336.27 197.32 C 337.83 196.95 339.43 197.42 341.02 197.24 C 340.98 198.83 340.88 200.43 340.72 202.02 C 343.26 203.60 345.41 205.82 346.95 208.41 C 345.75 207.53 343.36 205.78 342.16 204.91 C 335.27 204.26 328.31 205.27 321.43 204.51 C 318.71 204.28 318.33 201.23 318.44 199.08 C 318.47 166.69 318.47 134.30 318.44 101.92 C 318.32 99.73 318.75 96.73 321.49 96.52 Z" />
<path fill="#ffffff" d=" M 130.47 100.81 C 131.73 100.19 132.99 99.57 134.25 98.93 C 133.59 100.29 132.95 101.65 132.31 103.02 C 131.76 102.93 130.65 102.75 130.09 102.66 C 130.19 102.19 130.38 101.27 130.47 100.81 Z" />
<path fill="#ffffff" d=" M 137.72 99.34 C 138.85 99.34 139.98 99.33 141.12 99.33 C 140.86 125.89 140.83 152.44 140.87 179.01 C 140.93 186.56 140.66 194.13 141.13 201.68 C 139.99 201.70 138.85 201.71 137.72 201.73 C 137.76 167.60 137.76 133.47 137.72 99.34 Z" />
<path fill="#ffffff" d=" M 144.74 99.31 C 145.60 99.32 147.31 99.35 148.17 99.37 C 148.13 133.48 148.13 167.58 148.16 201.69 C 147.02 201.70 145.88 201.71 144.73 201.72 C 144.78 167.58 144.77 133.45 144.74 99.31 Z" />
<path fill="#ffffff" d=" M 158.79 99.36 C 159.93 99.35 161.07 99.35 162.21 99.34 C 162.17 133.46 162.17 167.58 162.21 201.69 C 161.36 201.70 159.65 201.70 158.79 201.71 C 158.84 167.59 158.85 133.47 158.79 99.36 Z" />
<path fill="#ffffff" d=" M 165.82 99.37 C 166.96 99.35 168.09 99.34 169.23 99.33 C 169.18 133.47 169.18 167.62 169.22 201.76 C 168.08 201.71 166.94 201.66 165.80 201.61 C 165.89 167.53 165.86 133.45 165.82 99.37 Z" />
<path fill="#ffffff" d=" M 172.74 98.95 C 174.00 99.58 175.26 100.20 176.53 100.82 C 176.62 101.29 176.79 102.22 176.88 102.69 C 176.30 102.76 175.14 102.90 174.57 102.97 C 173.96 101.62 173.36 100.28 172.74 98.95 Z" />
<path fill="#ffffff" d=" M 301.23 99.29 C 302.29 99.30 303.36 99.31 304.43 99.33 C 304.38 133.46 304.37 167.59 304.43 201.72 C 303.36 201.73 302.29 201.75 301.23 201.77 C 301.25 167.61 301.25 133.45 301.23 99.29 Z" />
<path fill="#ffffff" d=" M 308.26 99.28 C 309.32 99.30 310.39 99.32 311.47 99.33 C 311.42 133.47 311.42 167.60 311.46 201.73 C 310.39 201.74 309.32 201.75 308.26 201.76 C 308.28 167.60 308.28 133.44 308.26 99.28 Z" />
<path fill="#ffffff" d=" M 322.31 99.29 C 323.38 99.30 324.45 99.31 325.52 99.33 C 325.47 133.46 325.47 167.59 325.52 201.71 C 324.44 201.73 323.37 201.74 322.30 201.75 C 322.32 167.60 322.32 133.44 322.31 99.29 Z" />
<path fill="#ffffff" d=" M 329.33 99.30 C 330.40 99.30 331.47 99.31 332.55 99.31 C 332.51 133.45 332.51 167.59 332.55 201.73 C 331.47 201.73 330.40 201.74 329.33 201.74 C 329.36 167.60 329.36 133.45 329.33 99.30 Z" />
<path fill="#ffffff" d=" M 335.63 98.61 C 337.02 99.46 338.46 100.26 339.78 101.25 C 340.04 102.60 339.53 103.09 338.24 102.74 C 337.99 102.13 337.49 100.92 337.25 100.32 C 336.84 99.89 336.03 99.03 335.63 98.61 Z" />
<path fill="#ffffff" d=" M 129.42 198.77 C 130.14 198.56 131.58 198.13 132.30 197.92 C 132.93 199.43 133.57 200.94 134.21 202.44 C 132.62 201.20 130.99 200.02 129.42 198.77 Z" />
<path fill="#ffffff" d=" M 174.55 197.92 C 175.29 198.12 176.76 198.53 177.50 198.73 C 175.99 199.96 174.46 201.17 172.96 202.40 C 173.49 200.91 174.02 199.41 174.55 197.92 Z" />
<path fill="#ffffff" d=" M 338.25 198.28 C 339.52 197.85 340.03 198.34 339.78 199.74 C 338.49 200.78 337.00 201.52 335.61 202.41 C 336.02 201.97 336.84 201.10 337.25 200.66 C 337.50 200.07 338.00 198.88 338.25 198.28 Z" />
<path fill="#8b8d8d" d=" M 125.78 209.13 C 126.87 207.62 127.45 204.72 129.92 205.72 C 133.08 206.25 132.26 209.76 131.40 211.92 C 146.12 211.83 160.84 211.79 175.55 211.95 C 175.23 210.02 173.56 207.16 176.11 206.09 C 178.62 204.21 180.70 207.27 180.92 209.56 C 179.96 209.38 178.04 209.00 177.08 208.81 C 179.26 210.63 181.88 211.75 184.63 212.37 C 184.63 213.06 184.62 214.44 184.62 215.13 C 163.85 215.17 143.09 215.19 122.32 215.12 C 122.31 214.46 122.29 213.12 122.28 212.46 C 124.85 211.63 127.36 210.65 129.83 209.55 C 128.82 209.45 126.80 209.24 125.78 209.13 Z" />
<path fill="#8b8d8d" d=" M 134.15 206.46 C 147.04 206.46 159.93 206.46 172.82 206.46 C 172.84 206.78 172.88 207.40 172.89 207.71 C 159.95 207.74 147.01 207.74 134.07 207.71 C 134.09 207.40 134.13 206.77 134.15 206.46 Z" />
<path fill="#8b8d8d" d=" M 289.21 209.60 C 289.99 207.57 291.13 204.20 293.90 205.96 C 296.68 206.97 295.33 210.00 294.60 211.95 C 309.27 211.80 323.94 211.81 338.61 211.95 C 338.45 210.44 338.16 208.93 338.32 207.41 C 338.81 205.84 340.77 205.53 342.20 205.51 C 343.09 206.63 343.84 207.84 344.60 209.06 C 343.56 209.20 341.47 209.49 340.43 209.64 C 343.02 210.74 345.66 211.72 348.33 212.60 C 348.08 213.46 347.83 214.33 347.58 215.19 C 326.94 215.11 306.29 215.18 285.65 215.16 C 285.65 214.34 285.65 212.70 285.65 211.89 C 286.57 211.86 288.42 211.81 289.34 211.78 C 289.32 211.58 289.29 211.18 289.27 210.99 C 290.75 210.58 292.03 209.83 293.10 208.72 C 292.13 208.94 290.18 209.38 289.21 209.60 Z" />
<path fill="#8b8d8d" d=" M 296.44 207.27 C 298.57 206.61 300.79 206.37 303.01 206.41 C 312.01 206.48 321.00 206.49 330.00 206.41 C 332.44 206.37 334.91 206.59 337.28 207.22 C 330.56 208.19 323.76 207.56 317.01 207.72 C 310.15 207.56 303.26 208.17 296.44 207.27 Z" />
<path fill="#8b8d8d" d=" M 132.99 209.85 C 139.24 208.52 145.68 209.38 152.02 209.17 C 159.31 209.35 166.64 208.67 173.89 209.67 C 166.03 211.11 157.98 210.04 150.04 210.36 C 144.35 210.27 138.63 210.73 132.99 209.85 Z" />
<path fill="#8b8d8d" d=" M 296.30 209.87 C 299.15 209.18 302.10 209.08 305.02 209.12 C 313.36 209.20 321.69 209.18 330.03 209.12 C 332.45 209.09 334.89 209.32 337.26 209.87 C 328.54 210.90 319.75 210.12 311.00 210.36 C 306.10 210.33 301.16 210.63 296.30 209.87 Z" />
<path fill="#0073a4" d=" M 35.40 256.66 C 37.13 247.11 38.18 237.44 40.04 227.91 C 45.01 235.66 48.28 244.35 52.70 252.41 C 56.98 244.31 60.30 235.71 65.03 227.86 C 67.04 237.47 67.81 247.30 69.73 256.93 C 70.03 259.47 73.27 259.15 75.00 260.19 C 71.51 260.27 68.03 260.21 64.54 260.14 C 64.31 253.16 62.83 246.32 62.05 239.40 C 58.28 246.30 55.42 253.68 51.31 260.40 C 47.51 253.68 44.26 246.67 40.86 239.75 C 40.07 246.13 38.88 252.48 38.56 258.92 C 39.60 259.19 41.68 259.75 42.73 260.02 C 39.07 260.23 35.41 260.13 31.75 260.20 C 33.23 259.31 35.32 258.71 35.40 256.66 Z" />
<path fill="#0073a4" d=" M 233.07 229.28 C 237.71 229.22 242.35 229.10 246.99 229.40 C 246.05 229.68 244.18 230.24 243.24 230.51 C 242.89 234.11 242.59 237.74 242.92 241.35 C 243.11 241.53 243.48 241.88 243.67 242.06 C 248.73 242.39 253.81 242.09 258.89 242.18 C 259.26 238.30 259.10 234.40 258.68 230.54 C 257.21 230.16 255.74 229.80 254.28 229.42 C 258.98 229.12 263.69 229.15 268.39 229.36 C 267.07 229.76 265.76 230.17 264.45 230.58 C 264.17 236.05 264.29 241.52 264.26 247.00 C 264.28 251.04 264.02 255.16 265.04 259.11 C 266.16 259.33 268.38 259.77 269.50 259.99 C 264.72 260.33 259.92 260.05 255.14 260.21 C 259.48 259.76 258.91 255.29 259.10 252.11 C 259.17 249.55 259.14 246.99 259.13 244.43 C 253.71 244.32 248.28 244.35 242.86 244.40 C 242.74 249.28 242.70 254.20 243.56 259.03 C 245.09 259.33 246.62 259.66 248.14 260.01 C 243.30 260.27 238.45 260.20 233.60 260.04 C 234.78 259.69 235.95 259.36 237.14 259.05 C 238.02 253.08 237.59 247.03 237.69 241.03 C 237.61 237.61 237.94 234.13 237.29 230.75 C 235.91 230.19 234.50 229.70 233.07 229.28 Z" />
<path fill="#0073a4" d=" M 73.91 233.86 C 78.00 233.61 82.11 233.76 86.21 233.67 C 85.52 234.11 84.12 234.98 83.43 235.42 C 82.98 241.21 82.99 247.08 83.44 252.87 C 83.90 257.59 89.77 259.95 93.72 257.76 C 96.33 256.67 97.16 253.68 97.25 251.10 C 97.48 245.72 97.45 240.32 97.06 234.94 C 96.13 234.67 94.28 234.14 93.35 233.88 C 97.05 233.63 100.77 233.65 104.48 233.85 C 103.62 234.12 101.91 234.65 101.06 234.91 C 100.29 241.06 101.34 247.32 100.17 253.43 C 97.77 263.20 80.31 263.21 78.52 253.07 C 77.69 247.07 78.58 240.97 77.75 234.96 C 76.79 234.69 74.87 234.14 73.91 233.86 Z" />
<path fill="#0073a4" d=" M 111.42 235.39 C 114.83 232.47 119.60 233.28 123.70 233.65 C 123.68 235.69 123.66 237.73 123.67 239.77 C 122.67 238.35 122.04 236.52 120.53 235.55 C 118.25 234.79 115.34 234.84 113.57 236.68 C 112.82 238.21 112.80 240.47 114.32 241.56 C 117.42 244.16 121.87 245.40 123.74 249.27 C 125.79 253.12 123.62 258.13 119.71 259.75 C 116.04 261.21 111.94 260.50 108.23 259.58 C 108.30 257.28 108.42 254.98 108.59 252.69 C 109.64 254.96 110.41 258.14 113.37 258.52 C 116.39 259.53 120.61 257.68 120.37 254.11 C 119.93 249.94 115.12 249.01 112.43 246.60 C 108.67 244.33 107.66 238.11 111.42 235.39 Z" />
<path fill="#0073a4" d=" M 128.24 233.65 C 134.42 233.74 140.61 233.84 146.79 233.60 C 146.63 235.41 146.48 237.24 146.36 239.06 C 145.15 234.91 140.53 235.87 137.23 235.64 C 137.19 238.75 137.18 241.86 137.22 244.97 C 140.30 244.94 143.39 244.82 146.46 244.47 C 146.09 246.47 145.71 248.48 145.35 250.49 C 145.05 249.45 144.76 248.41 144.48 247.38 C 142.07 247.19 139.65 247.02 137.24 246.85 C 137.16 250.41 137.14 253.98 137.42 257.54 C 139.61 257.86 141.84 258.46 144.06 258.06 C 146.06 257.85 146.80 255.73 147.99 254.45 C 147.39 256.23 148.15 258.95 146.40 260.08 C 140.59 260.52 134.73 259.91 128.90 260.22 C 129.60 259.80 130.98 258.95 131.68 258.53 C 132.74 254.44 132.12 250.14 132.29 245.96 C 132.14 242.43 132.71 238.80 131.83 235.35 C 130.93 234.93 129.14 234.08 128.24 233.65 Z" />
<path fill="#0073a4" d=" M 150.34 233.64 C 154.57 233.76 158.81 233.65 163.05 233.83 C 161.91 234.20 160.76 234.58 159.61 234.95 C 159.45 241.02 158.99 247.17 159.78 253.21 C 160.43 257.71 165.98 259.77 169.79 257.86 C 172.07 256.89 173.35 254.47 173.44 252.07 C 173.79 246.38 173.66 240.67 173.39 234.98 C 172.39 234.70 170.39 234.14 169.39 233.85 C 173.02 233.65 176.67 233.74 180.30 233.66 C 179.58 234.09 178.14 234.95 177.42 235.37 C 176.58 241.84 178.12 248.59 175.97 254.88 C 173.60 260.51 166.35 261.45 161.09 260.00 C 157.47 259.07 154.97 255.65 154.61 252.03 C 154.04 246.57 154.72 241.08 154.23 235.62 C 153.00 234.83 151.65 234.25 150.34 233.64 Z" />
<path fill="#0073a4" d=" M 271.58 233.68 C 275.45 233.74 279.34 233.75 283.22 233.62 C 282.11 234.56 280.17 235.12 280.45 236.91 C 280.39 242.32 280.01 247.80 280.73 253.18 C 281.46 258.29 288.37 260.17 292.09 257.02 C 294.24 255.39 294.47 252.47 294.54 249.99 C 294.63 244.99 294.63 239.99 294.35 234.99 C 293.37 234.71 291.40 234.14 290.41 233.86 C 294.14 233.64 297.87 233.67 301.60 233.82 C 300.51 234.20 299.42 234.56 298.33 234.92 C 297.72 241.55 298.95 248.41 296.94 254.86 C 293.85 261.68 283.49 262.30 278.22 257.80 C 273.31 252.00 276.17 243.77 275.29 236.89 C 275.61 234.77 272.73 234.67 271.58 233.68 Z" />
<path fill="#0073a4" d=" M 306.86 232.64 C 314.30 239.02 320.87 246.34 327.89 253.17 C 327.77 247.08 327.91 240.99 327.37 234.92 C 326.37 234.66 324.37 234.15 323.37 233.90 C 326.84 233.71 330.33 233.66 333.81 233.40 C 334.17 235.49 330.38 234.72 330.88 237.01 C 330.42 245.01 330.82 253.04 330.22 261.04 C 322.60 255.11 316.04 247.96 309.27 241.11 C 309.48 246.52 309.22 251.97 309.84 257.36 C 309.99 259.25 312.40 259.27 313.62 260.21 C 309.86 260.13 306.10 260.22 302.35 260.04 C 303.24 259.81 305.04 259.35 305.94 259.12 C 307.06 250.34 306.23 241.45 306.86 232.64 Z" />
<path fill="#0073a4" d=" M 386.66 233.71 C 391.60 233.83 396.55 233.46 401.47 233.87 C 404.68 234.09 408.13 236.49 407.93 240.02 C 408.05 243.40 405.18 245.65 403.11 247.90 C 406.95 252.23 410.13 257.46 415.55 260.04 C 415.71 257.47 415.82 254.90 415.97 252.32 C 416.64 253.99 417.30 255.65 417.96 257.33 C 420.44 258.34 423.49 259.56 425.98 257.90 C 428.40 256.44 428.42 252.48 426.19 250.86 C 423.79 248.81 420.75 247.63 418.51 245.39 C 415.76 242.65 415.75 237.40 419.14 235.17 C 422.63 232.48 427.28 233.30 431.34 233.69 C 431.31 235.75 431.27 237.81 431.25 239.87 C 430.30 238.41 429.59 236.74 428.23 235.61 C 425.57 234.62 421.69 234.83 420.46 237.85 C 420.02 242.42 425.47 243.37 428.22 245.77 C 432.32 248.23 433.47 254.51 429.89 257.91 C 426.49 261.56 421.04 260.48 416.63 260.13 C 413.45 260.12 409.93 260.71 407.12 258.89 C 404.28 256.62 402.57 253.31 400.30 250.53 C 399.32 248.85 397.11 249.44 395.51 249.04 C 395.62 252.19 395.05 255.52 396.10 258.56 C 396.99 258.96 398.75 259.78 399.63 260.18 C 395.59 260.16 391.54 260.10 387.50 260.23 C 388.77 259.40 390.88 258.91 390.64 256.97 C 390.81 249.76 391.01 242.50 390.54 235.30 C 389.27 234.71 387.98 234.18 386.66 233.71 Z" />
<path fill="#0073a4" d=" M 184.14 257.15 C 185.91 248.98 186.23 240.51 188.60 232.47 C 192.50 239.26 195.78 246.39 199.33 253.36 C 203.15 246.46 206.14 239.12 210.21 232.34 C 212.39 240.38 212.77 248.78 214.48 256.91 C 214.70 259.20 217.49 259.29 219.07 260.23 C 215.93 260.22 212.80 260.19 209.66 260.14 C 209.40 254.27 208.40 248.48 207.49 242.69 C 204.53 248.45 201.91 254.39 198.64 259.99 C 197.36 259.42 196.75 258.08 196.07 256.94 C 193.61 252.45 191.56 247.74 189.00 243.29 C 188.48 248.42 187.11 253.53 187.43 258.70 C 188.18 259.07 189.68 259.81 190.43 260.18 C 187.22 260.14 184.01 260.12 180.79 260.24 C 182.02 259.35 184.08 259.01 184.14 257.15 Z" />
<path fill="#0073a4" d=" M 336.32 238.83 C 336.67 237.03 337.00 235.23 337.35 233.43 C 345.32 233.95 353.34 233.79 361.33 233.58 C 361.32 235.44 361.34 237.30 361.37 239.17 C 359.72 235.16 355.10 236.02 351.64 235.75 C 351.83 243.52 351.05 251.38 352.23 259.10 C 353.26 259.32 355.33 259.78 356.36 260.01 C 352.03 260.29 347.70 260.06 343.37 260.24 C 344.70 259.43 346.81 258.90 346.57 256.91 C 346.90 249.87 346.66 242.81 346.68 235.76 C 343.06 235.97 338.60 235.28 336.32 238.83 Z" />
<path fill="#0073a4" d=" M 363.84 233.65 C 370.07 233.74 376.31 233.84 382.55 233.60 C 382.37 235.56 382.21 237.52 382.04 239.48 C 381.64 238.43 381.24 237.39 380.84 236.34 C 378.18 235.92 375.50 235.71 372.82 235.61 C 372.79 238.72 372.79 241.82 372.81 244.93 C 375.87 244.94 378.94 244.85 381.99 244.49 C 381.77 246.40 381.58 248.32 381.43 250.24 C 380.49 246.45 375.98 246.39 372.89 247.37 C 372.58 250.78 372.76 254.23 373.31 257.62 C 375.78 257.90 378.41 258.70 380.84 257.75 C 382.10 256.92 382.75 255.44 383.71 254.30 C 383.41 256.28 383.11 258.27 382.73 260.24 C 376.68 260.27 370.63 260.02 364.59 260.23 C 365.84 259.41 367.99 258.97 367.72 257.02 C 367.89 249.80 368.06 242.54 367.64 235.32 C 366.69 234.90 364.79 234.07 363.84 233.65 Z" />
<path fill="#ffffff" d=" M 395.76 247.27 C 395.18 243.32 395.49 239.30 395.59 235.33 C 397.92 235.64 400.79 235.53 402.31 237.69 C 404.04 240.30 403.87 244.26 401.58 246.48 C 400.02 248.00 397.68 247.35 395.76 247.27 Z" />
<path fill="#00a9dd" d=" M 105.80 277.54 C 106.58 277.55 107.36 277.56 108.15 277.58 C 108.20 280.63 107.95 283.71 108.40 286.74 C 108.94 289.63 114.04 289.76 114.76 286.93 C 115.45 283.81 115.12 280.58 115.29 277.42 C 115.82 277.45 116.87 277.53 117.40 277.56 C 117.32 281.00 117.89 284.57 116.93 287.92 C 115.30 291.82 109.49 292.58 107.03 289.08 C 104.85 285.67 106.06 281.34 105.80 277.54 Z" />
<path fill="#00a9dd" d=" M 133.56 277.73 C 134.27 277.67 135.67 277.55 136.38 277.48 C 136.29 278.23 136.10 279.73 136.01 280.48 C 135.28 279.49 134.47 278.56 133.56 277.73 Z" />
<path fill="#00a9dd" d=" M 189.68 283.08 C 191.29 280.73 193.07 278.49 195.31 276.72 C 195.72 281.10 195.85 285.54 195.50 289.94 C 195.09 290.51 194.28 291.65 193.87 292.22 C 193.30 288.87 193.36 285.46 193.34 282.07 C 192.14 283.63 190.94 285.19 189.72 286.73 C 188.38 285.26 187.09 283.74 185.83 282.20 C 185.80 285.33 186.02 288.51 185.41 291.61 L 183.82 290.98 C 183.28 286.25 183.53 281.45 183.86 276.71 C 186.16 278.48 187.95 280.76 189.68 283.08 Z" />
<path fill="#00a9dd" d=" M 271.88 277.49 C 274.76 277.34 277.65 277.32 280.53 277.36 C 280.53 277.90 280.52 278.97 280.52 279.51 C 278.42 279.56 276.32 279.58 274.23 279.61 C 274.24 280.46 274.27 282.16 274.29 283.01 C 276.58 283.24 279.28 282.82 280.76 285.06 C 278.59 285.31 276.42 285.45 274.25 285.57 C 274.23 286.61 274.21 287.66 274.20 288.72 C 276.73 288.95 279.26 289.22 281.73 289.86 C 278.94 292.02 275.34 291.26 272.09 291.33 C 271.77 286.72 271.85 282.10 271.88 277.49 Z" />
<path fill="#00a9dd" d=" M 328.44 280.71 C 328.63 279.09 329.25 277.60 330.27 276.33 C 330.76 278.20 330.42 279.90 328.44 280.71 Z" />
<path fill="#00a9dd" d=" M 121.83 281.50 C 124.47 281.71 128.17 280.50 129.68 283.45 C 130.80 285.86 130.26 288.69 130.12 291.26 C 126.00 291.36 130.00 284.02 125.93 283.24 C 123.01 285.20 124.55 289.54 123.08 292.43 C 121.14 289.09 121.93 285.15 121.83 281.50 Z" />
<path fill="#00a9dd" d=" M 134.23 281.44 C 134.75 281.47 135.79 281.51 136.31 281.53 C 136.22 285.18 137.12 289.19 134.92 292.42 C 133.88 288.85 134.12 285.11 134.23 281.44 Z" />
<path fill="#00a9dd" d=" M 141.77 281.78 C 144.04 281.20 146.42 281.60 148.75 281.55 C 148.68 285.76 149.21 290.06 148.52 294.23 C 148.13 294.62 147.35 295.40 146.96 295.79 C 146.80 294.27 146.65 292.75 146.53 291.24 C 144.63 291.08 142.35 291.69 140.86 290.17 C 138.17 288.06 138.65 283.25 141.77 281.78 Z" />
<path fill="#00a9dd" d=" M 158.92 281.61 C 159.70 281.58 160.48 281.56 161.26 281.54 C 160.96 284.46 162.06 288.23 159.54 290.42 C 157.04 292.82 152.49 290.43 152.71 287.09 C 152.87 285.01 151.78 281.89 154.29 280.86 C 154.92 283.51 155.08 286.24 155.40 288.94 C 156.51 288.85 157.62 288.76 158.73 288.67 C 158.82 286.31 158.87 283.96 158.92 281.61 Z" />
<path fill="#00a9dd" d=" M 166.05 290.00 C 162.52 287.15 165.33 280.68 169.83 281.34 C 172.70 281.30 173.72 284.39 174.83 286.46 C 171.93 286.97 168.98 287.17 166.10 287.83 C 168.59 289.01 171.35 288.84 174.02 288.93 C 172.06 291.18 168.38 292.47 166.05 290.00 Z" />
<path fill="#00a9dd" d=" M 206.45 281.39 C 206.96 281.44 207.97 281.55 208.48 281.60 C 208.14 284.54 209.43 288.50 206.61 290.54 C 204.33 292.49 200.46 290.84 200.09 287.92 C 199.80 285.45 199.02 281.93 202.01 280.84 C 202.18 283.56 202.28 286.30 202.51 289.03 C 203.60 288.91 204.70 288.75 205.79 288.56 C 206.41 286.22 206.30 283.78 206.45 281.39 Z" />
<path fill="#00a9dd" d=" M 211.17 284.20 C 212.53 283.02 213.78 281.03 215.86 281.33 C 217.76 281.20 218.77 283.05 219.96 284.19 C 218.52 284.00 217.08 283.79 215.65 283.57 C 215.16 283.68 214.20 283.89 213.71 284.00 C 215.64 284.90 217.69 285.62 219.41 286.93 C 220.32 289.15 218.23 291.43 216.00 291.34 C 213.99 291.60 212.45 290.06 211.08 288.86 C 213.28 288.43 215.51 288.63 217.72 288.57 C 215.38 287.36 212.98 286.17 211.17 284.20 Z" />
<path fill="#00a9dd" d=" M 234.29 281.46 C 234.80 281.48 235.81 281.50 236.31 281.52 C 236.61 283.90 235.89 286.65 237.19 288.81 C 237.87 288.82 239.22 288.84 239.90 288.85 C 240.70 286.14 240.54 283.29 240.95 280.52 C 244.64 283.62 243.05 292.78 237.12 291.14 C 233.07 289.70 234.53 284.73 234.29 281.46 Z" />
<path fill="#00a9dd" d=" M 246.74 281.42 C 249.17 281.49 251.61 281.57 254.03 281.81 C 256.59 281.29 260.21 280.90 261.11 284.14 C 261.21 286.54 262.59 290.64 259.68 291.68 C 258.71 288.90 260.21 284.67 257.03 283.19 C 254.06 284.69 255.55 288.56 255.06 291.22 C 254.54 291.21 253.49 291.19 252.97 291.19 C 252.42 288.61 254.04 284.59 251.01 283.30 C 247.82 284.60 249.47 289.02 248.32 291.73 C 246.01 291.24 246.95 288.65 246.66 287.05 C 246.65 285.17 246.70 283.29 246.74 281.42 Z" />
<path fill="#00a9dd" d=" M 294.96 281.57 C 297.14 281.58 299.34 281.30 301.51 281.64 C 304.91 282.70 305.85 287.76 303.12 290.02 C 301.62 291.64 299.22 291.08 297.27 291.32 C 297.20 292.77 297.12 294.23 297.03 295.69 C 296.55 295.32 295.60 294.58 295.12 294.21 C 294.53 290.03 294.96 285.77 294.96 281.57 Z" />
<path fill="#00a9dd" d=" M 308.93 290.05 C 305.61 287.40 307.68 281.26 311.97 281.33 C 314.96 280.95 316.71 283.78 317.42 286.26 C 314.75 287.36 311.78 287.14 308.97 287.63 C 311.25 289.08 313.93 288.98 316.52 288.79 C 314.91 291.32 311.17 292.44 308.93 290.05 Z" />
<path fill="#00a9dd" d=" M 328.57 281.52 C 329.08 281.50 330.11 281.45 330.62 281.43 C 330.74 285.07 330.88 288.76 330.10 292.36 C 327.56 289.29 328.70 285.15 328.57 281.52 Z" />
<path fill="#00a9dd" d=" M 334.35 283.42 C 335.73 281.27 338.84 280.69 340.97 282.04 C 342.34 283.20 342.91 284.97 343.79 286.48 C 340.93 286.95 338.04 287.19 335.19 287.67 C 337.54 289.15 340.32 288.85 342.96 288.91 C 341.44 290.00 339.99 291.77 337.88 291.33 C 334.20 291.17 332.04 286.30 334.35 283.42 Z" />
<path fill="#00a9dd" d=" M 346.37 281.45 C 348.35 281.50 350.36 281.32 352.32 281.69 C 355.81 283.62 354.61 288.30 354.33 291.55 C 350.37 290.89 354.84 283.32 349.82 283.41 C 347.69 285.48 348.85 288.79 348.17 291.41 C 347.75 291.29 346.91 291.06 346.49 290.95 C 346.12 287.79 346.31 284.61 346.37 281.45 Z" />
<path fill="#00a9dd" d=" M 358.42 288.64 C 356.40 285.52 359.39 280.99 363.03 281.33 C 364.92 281.10 366.09 282.67 367.09 284.01 C 364.91 284.18 362.20 282.76 360.46 284.67 C 359.58 286.28 360.77 287.83 361.44 289.26 C 363.31 288.93 365.20 288.66 367.09 288.45 C 365.73 292.40 360.09 292.11 358.42 288.64 Z" />
<path fill="#00a9dd" d=" M 369.81 289.19 C 367.10 285.82 370.59 280.31 374.81 281.41 C 377.62 281.71 378.40 284.71 378.88 287.03 C 376.13 287.11 373.38 287.17 370.65 287.44 C 372.87 289.23 375.72 288.85 378.38 288.88 C 376.37 291.75 371.83 292.34 369.81 289.19 Z" />
<path fill="#00a9dd" d=" M 222.64 289.44 C 219.84 286.25 222.85 280.63 227.07 281.35 C 229.76 281.48 231.14 284.15 231.67 286.46 C 228.92 287.17 226.07 287.21 223.28 287.64 C 225.66 289.12 228.47 288.84 231.15 288.91 C 229.08 291.51 224.80 292.42 222.64 289.44 Z" />
<path fill="#00a9dd" d=" M 285.49 286.29 C 284.45 284.57 283.41 282.81 283.30 280.75 C 284.54 281.77 285.76 282.84 286.96 283.92 C 288.38 282.87 289.87 281.90 291.48 281.16 C 290.68 282.93 289.74 284.65 288.77 286.33 C 289.75 288.10 290.67 289.91 291.41 291.80 C 289.83 290.93 288.39 289.86 287.00 288.73 C 285.80 289.86 284.58 290.95 283.32 292.02 C 283.41 289.90 284.46 288.07 285.49 286.29 Z" />
<path fill="#00a9dd" d=" M 319.73 281.44 C 321.95 281.62 324.19 281.71 326.41 281.89 C 325.16 283.07 323.52 283.92 322.55 285.38 C 321.98 287.48 321.84 289.68 321.26 291.78 C 318.20 289.56 320.27 284.75 319.73 281.44 Z" />
<path fill="#ffffff" d=" M 143.49 283.51 C 145.20 283.33 147.19 285.28 146.51 286.98 C 146.25 289.68 141.60 289.63 141.41 286.91 C 140.84 285.35 142.30 284.20 143.49 283.51 Z" />
<path fill="#ffffff" d=" M 166.21 285.18 C 167.19 284.50 168.15 283.80 169.20 283.26 C 170.54 283.55 171.63 284.46 172.78 285.17 C 170.59 285.27 168.40 285.27 166.21 285.18 Z" />
<path fill="#ffffff" d=" M 223.25 285.18 C 224.41 284.57 225.40 283.29 226.80 283.34 C 227.87 283.82 228.83 284.53 229.82 285.17 C 227.63 285.27 225.44 285.27 223.25 285.18 Z" />
<path fill="#ffffff" d=" M 299.51 283.56 C 302.92 283.02 303.68 289.13 299.99 288.95 C 296.60 289.40 296.36 283.97 299.51 283.56 Z" />
<path fill="#ffffff" d=" M 309.02 285.13 C 310.02 284.43 311.06 283.77 312.15 283.21 C 313.38 283.75 314.54 284.45 315.68 285.18 C 313.46 285.28 311.23 285.27 309.02 285.13 Z" />
<path fill="#ffffff" d=" M 335.19 285.18 C 336.14 284.50 337.08 283.80 338.12 283.26 C 339.48 283.55 340.58 284.46 341.75 285.17 C 339.56 285.27 337.37 285.27 335.19 285.18 Z" />
<path fill="#ffffff" d=" M 371.98 283.95 C 372.98 283.00 375.26 282.94 375.79 284.43 C 375.53 286.23 371.06 285.94 371.98 283.95 Z" />
</svg>
